<?xml version="1.0" encoding="UTF-8"?><svg id="Layer_1" xmlns="http://www.w3.org/2000/svg" xmlns:xlink="http://www.w3.org/1999/xlink" viewBox="0 0 5000.47 5000.47"><defs><style>.cls-1,.cls-2{fill:#fff;}.cls-2{fill-rule:evenodd;}.cls-3{fill:url(#Camera_Pattern_White);}.cls-4{fill:none;}</style><pattern id="Camera_Pattern_White" x="0" y="0" width="568.64" height="950.26" patternTransform="translate(548.58 846.44)" patternUnits="userSpaceOnUse" viewBox="0 0 568.64 950.26"><g><rect class="cls-4" width="568.64" height="950.26"/><g><path class="cls-1" d="M404.44,862.84c-5.54,0-10.57,2.26-14.21,5.9s-5.9,8.67-5.9,14.21v183.05c0,5.54,2.26,10.57,5.9,14.21,3.64,3.64,8.67,5.9,14.21,5.9h328.41c5.54,0,10.57-2.26,14.21-5.9,3.64-3.64,5.9-8.67,5.9-14.21v-183.05c0-5.54-2.26-10.57-5.9-14.21-3.64-3.64-8.67-5.9-14.21-5.9h-80.11l-30.83-45.44c-.98-1.78-2.87-2.99-5.05-2.99h-96.4c-1.86,0-3.68,.88-4.8,2.53l.02,.02-31.13,45.88h-80.11Zm88.18,8.53l30.83-45.44h90.4l31.13,45.88,4.75-3.22-4.77,3.23c1.12,1.65,2.95,2.54,4.8,2.53h83.09c2.36,0,4.51,.97,6.07,2.53s2.53,3.71,2.53,6.07v183.05c0,2.36-.97,4.51-2.53,6.07-1.56,1.56-3.71,2.53-6.07,2.53H404.44c-2.36,0-4.51-.97-6.07-2.53-1.56-1.56-2.53-3.71-2.53-6.07v-183.05c0-2.36,.97-4.51,2.53-6.07s3.71-2.53,6.07-2.53h83.13c2.18,0,4.07-1.21,5.05-2.99Z"/><path class="cls-1" d="M568.64,894.97c-21.95,0-41.83,8.9-56.22,23.29-14.39,14.39-23.29,34.26-23.29,56.22s8.9,41.83,23.29,56.22c14.39,14.39,34.26,23.29,56.22,23.29s41.83-8.9,56.22-23.29c14.39-14.39,23.29-34.26,23.29-56.22s-8.9-41.83-23.29-56.22c-14.39-14.39-34.26-23.29-56.22-23.29h0Zm67.98,79.5c0,18.77-7.61,35.77-19.91,48.07-12.3,12.3-29.3,19.91-48.07,19.91s-35.77-7.61-48.07-19.91c-12.3-12.3-19.91-29.3-19.91-48.07s7.61-35.77,19.91-48.07c12.3-12.3,29.3-19.91,48.07-19.91s35.77,7.61,48.07,19.91c12.3,12.3,19.91,29.3,19.91,48.07Z"/><path class="cls-1" d="M518.92,974.48c0,3.18,2.58,5.76,5.76,5.76s5.76-2.58,5.76-5.76c0-10.55,4.28-20.1,11.19-27.01,6.91-6.91,16.46-11.19,27.01-11.19,3.18,0,5.76-2.58,5.76-5.76s-2.58-5.76-5.76-5.76c-13.73,0-26.16,5.57-35.16,14.56-9,9-14.56,21.43-14.56,35.16Z"/><path class="cls-1" d="M540.47,831.84c-4.62,0-8.63,3.99-8.63,8.63v25.27c0,2.11,.77,4.05,2.05,5.56,.15,.19,.31,.37,.48,.54h0c1.56,1.56,3.72,2.53,6.1,2.53h56.13c2.33,0,4.42-.9,6.08-2.51,.01-.01,.03-.05,.05-.08,1.54-1.56,2.49-3.7,2.49-6.04v-25.27c0-2.11-.77-4.05-2.05-5.56-.15-.19-.31-.37-.48-.54h0c-1.56-1.56-3.72-2.53-6.1-2.53h-56.13Zm53.25,31.01h-50.36v-19.49h50.36v19.49Z"/></g><g><path class="cls-1" d="M-164.2,862.84c-5.54,0-10.57,2.26-14.21,5.9s-5.9,8.67-5.9,14.21v183.05c0,5.54,2.26,10.57,5.9,14.21,3.64,3.64,8.67,5.9,14.21,5.9H164.2c5.54,0,10.57-2.26,14.21-5.9,3.64-3.64,5.9-8.67,5.9-14.21v-183.05c0-5.54-2.26-10.57-5.9-14.21-3.64-3.64-8.67-5.9-14.21-5.9H84.1l-30.83-45.44c-.98-1.78-2.87-2.99-5.05-2.99H-48.18c-1.86,0-3.68,.88-4.8,2.53l.02,.02-31.13,45.88h-80.11Zm88.18,8.53l30.83-45.44H45.2l31.13,45.88,4.75-3.22-4.77,3.23c1.12,1.65,2.95,2.54,4.8,2.53h83.09c2.36,0,4.51,.97,6.07,2.53s2.53,3.71,2.53,6.07v183.05c0,2.36-.97,4.51-2.53,6.07-1.56,1.56-3.71,2.53-6.07,2.53H-164.2c-2.36,0-4.51-.97-6.07-2.53-1.56-1.56-2.53-3.71-2.53-6.07v-183.05c0-2.36,.97-4.51,2.53-6.07s3.71-2.53,6.07-2.53H-81.07c2.18,0,4.07-1.21,5.05-2.99Z"/><path class="cls-1" d="M0,894.97c-21.95,0-41.83,8.9-56.22,23.29-14.39,14.39-23.29,34.26-23.29,56.22s8.9,41.83,23.29,56.22c14.39,14.39,34.26,23.29,56.22,23.29s41.83-8.9,56.22-23.29c14.39-14.39,23.29-34.26,23.29-56.22s-8.9-41.83-23.29-56.22C41.83,903.87,21.95,894.97,0,894.97H0Zm67.98,79.5c0,18.77-7.61,35.77-19.91,48.07-12.3,12.3-29.3,19.91-48.07,19.91s-35.77-7.61-48.07-19.91c-12.3-12.3-19.91-29.3-19.91-48.07s7.61-35.77,19.91-48.07c12.3-12.3,29.3-19.91,48.07-19.91s35.77,7.61,48.07,19.91c12.3,12.3,19.91,29.3,19.91,48.07Z"/><path class="cls-1" d="M-49.72,974.48c0,3.18,2.58,5.76,5.76,5.76s5.76-2.58,5.76-5.76c0-10.55,4.28-20.1,11.19-27.01,6.91-6.91,16.46-11.19,27.01-11.19,3.18,0,5.76-2.58,5.76-5.76S3.18,924.75,0,924.75c-13.73,0-26.16,5.57-35.16,14.56-9,9-14.56,21.43-14.56,35.16Z"/><path class="cls-2" d="M133.74,868.6h23.36v-14.02c0-6.42-5.25-11.68-11.68-11.68h0c-6.42,0-11.68,5.26-11.68,11.68v14.02Z"/><path class="cls-1" d="M-28.17,831.84c-4.62,0-8.63,3.99-8.63,8.63v25.27c0,2.11,.77,4.05,2.05,5.56,.15,.19,.31,.37,.48,.54h0c1.56,1.56,3.72,2.53,6.1,2.53H27.97c2.33,0,4.42-.9,6.08-2.51,.01-.01,.03-.05,.05-.08,1.54-1.56,2.49-3.7,2.49-6.04v-25.27c0-2.11-.77-4.05-2.05-5.56-.15-.19-.31-.37-.48-.54h0c-1.56-1.56-3.72-2.53-6.1-2.53H-28.17Zm53.25,31.01H-25.28v-19.49H25.08v19.49Z"/></g><g><path class="cls-1" d="M120.12,387.71c-5.54,0-10.57,2.26-14.21,5.9s-5.9,8.67-5.9,14.21v183.05c0,5.54,2.26,10.57,5.9,14.21,3.64,3.64,8.67,5.9,14.21,5.9H448.52c5.54,0,10.57-2.26,14.21-5.9,3.64-3.64,5.9-8.67,5.9-14.21v-183.05c0-5.54-2.26-10.57-5.9-14.21-3.64-3.64-8.67-5.9-14.21-5.9h-80.11l-30.83-45.44c-.98-1.78-2.87-2.99-5.05-2.99h-96.4c-1.86,0-3.68,.88-4.8,2.53l.02,.02-31.13,45.88H120.12Zm88.18,8.53l30.83-45.44h90.4l31.13,45.88,4.75-3.22-4.77,3.23c1.12,1.65,2.95,2.54,4.8,2.53h83.09c2.36,0,4.51,.97,6.07,2.53s2.53,3.71,2.53,6.07v183.05c0,2.36-.97,4.51-2.53,6.07-1.56,1.56-3.71,2.53-6.07,2.53H120.12c-2.36,0-4.51-.97-6.07-2.53-1.56-1.56-2.53-3.71-2.53-6.07v-183.05c0-2.36,.97-4.51,2.53-6.07s3.71-2.53,6.07-2.53h83.13c2.18,0,4.07-1.21,5.05-2.99Z"/><path class="cls-1" d="M284.32,419.84c-21.95,0-41.83,8.9-56.22,23.29-14.39,14.39-23.29,34.26-23.29,56.22s8.9,41.83,23.29,56.22c14.39,14.39,34.26,23.29,56.22,23.29s41.83-8.9,56.22-23.29c14.39-14.39,23.29-34.26,23.29-56.22s-8.9-41.83-23.29-56.22c-14.39-14.39-34.26-23.29-56.22-23.29h0Zm67.98,79.5c0,18.77-7.61,35.77-19.91,48.07-12.3,12.3-29.3,19.91-48.07,19.91s-35.77-7.61-48.07-19.91c-12.3-12.3-19.91-29.3-19.91-48.07s7.61-35.77,19.91-48.07c12.3-12.3,29.3-19.91,48.07-19.91s35.77,7.61,48.07,19.91c12.3,12.3,19.91,29.3,19.91,48.07Z"/><path class="cls-1" d="M234.6,499.35c0,3.18,2.58,5.76,5.76,5.76s5.76-2.58,5.76-5.76c0-10.55,4.28-20.1,11.19-27.01,6.91-6.91,16.46-11.19,27.01-11.19,3.18,0,5.76-2.58,5.76-5.76s-2.58-5.76-5.76-5.76c-13.73,0-26.16,5.57-35.16,14.56-9,9-14.56,21.43-14.56,35.16Z"/><path class="cls-2" d="M418.06,393.47h23.36v-14.02c0-6.42-5.25-11.68-11.68-11.68h0c-6.42,0-11.68,5.26-11.68,11.68v14.02Z"/><path class="cls-1" d="M256.15,356.7c-4.62,0-8.63,3.99-8.63,8.63v25.27c0,2.11,.77,4.05,2.05,5.56,.15,.19,.31,.37,.48,.54h0c1.56,1.56,3.72,2.53,6.1,2.53h56.13c2.33,0,4.42-.9,6.08-2.51,.01-.01,.03-.05,.05-.08,1.54-1.56,2.49-3.7,2.49-6.04v-25.27c0-2.11-.77-4.05-2.05-5.56-.15-.19-.31-.37-.48-.54h0c-1.56-1.56-3.72-2.53-6.1-2.53h-56.13Zm53.25,31.01h-50.36v-19.49h50.36v19.49Z"/></g><g><path class="cls-1" d="M404.44-87.43c-5.54,0-10.57,2.26-14.21,5.9s-5.9,8.67-5.9,14.21V115.74c0,5.54,2.26,10.57,5.9,14.21,3.64,3.64,8.67,5.9,14.21,5.9h328.41c5.54,0,10.57-2.26,14.21-5.9,3.64-3.64,5.9-8.67,5.9-14.21V-67.31c0-5.54-2.26-10.57-5.9-14.21-3.64-3.64-8.67-5.9-14.21-5.9h-80.11l-30.83-45.44c-.98-1.78-2.87-2.99-5.05-2.99h-96.4c-1.86,0-3.68,.88-4.8,2.53l.02,.02-31.13,45.88h-80.11Zm88.18,8.53l30.83-45.44h90.4l31.13,45.88,4.75-3.22-4.77,3.23c1.12,1.65,2.95,2.54,4.8,2.53h83.09c2.36,0,4.51,.97,6.07,2.53s2.53,3.71,2.53,6.07V115.74c0,2.36-.97,4.51-2.53,6.07-1.56,1.56-3.71,2.53-6.07,2.53H404.44c-2.36,0-4.51-.97-6.07-2.53-1.56-1.56-2.53-3.71-2.53-6.07V-67.31c0-2.36,.97-4.51,2.53-6.07s3.71-2.53,6.07-2.53h83.13c2.18,0,4.07-1.21,5.05-2.99Z"/><path class="cls-1" d="M568.64-55.29c-21.95,0-41.83,8.9-56.22,23.29-14.39,14.39-23.29,34.26-23.29,56.22s8.9,41.83,23.29,56.22c14.39,14.39,34.26,23.29,56.22,23.29s41.83-8.9,56.22-23.29c14.39-14.39,23.29-34.26,23.29-56.22s-8.9-41.83-23.29-56.22c-14.39-14.39-34.26-23.29-56.22-23.29h0Zm67.98,79.5c0,18.77-7.61,35.77-19.91,48.07-12.3,12.3-29.3,19.91-48.07,19.91s-35.77-7.61-48.07-19.91c-12.3-12.3-19.91-29.3-19.91-48.07s7.61-35.77,19.91-48.07c12.3-12.3,29.3-19.91,48.07-19.91s35.77,7.61,48.07,19.91c12.3,12.3,19.91,29.3,19.91,48.07Z"/><path class="cls-1" d="M518.92,24.21c0,3.18,2.58,5.76,5.76,5.76s5.76-2.58,5.76-5.76c0-10.55,4.28-20.1,11.19-27.01,6.91-6.91,16.46-11.19,27.01-11.19,3.18,0,5.76-2.58,5.76-5.76s-2.58-5.76-5.76-5.76c-13.73,0-26.16,5.57-35.16,14.56-9,9-14.56,21.43-14.56,35.16Z"/></g><g><path class="cls-1" d="M-164.2-87.43c-5.54,0-10.57,2.26-14.21,5.9s-5.9,8.67-5.9,14.21V115.74c0,5.54,2.26,10.57,5.9,14.21,3.64,3.64,8.67,5.9,14.21,5.9H164.2c5.54,0,10.57-2.26,14.21-5.9,3.64-3.64,5.9-8.67,5.9-14.21V-67.31c0-5.54-2.26-10.57-5.9-14.21-3.64-3.64-8.67-5.9-14.21-5.9H84.1l-30.83-45.44c-.98-1.78-2.87-2.99-5.05-2.99H-48.18c-1.86,0-3.68,.88-4.8,2.53l.02,.02-31.13,45.88h-80.11Zm88.18,8.53l30.83-45.44H45.2l31.13,45.88,4.75-3.22-4.77,3.23c1.12,1.65,2.95,2.54,4.8,2.53h83.09c2.36,0,4.51,.97,6.07,2.53s2.53,3.71,2.53,6.07V115.74c0,2.36-.97,4.51-2.53,6.07-1.56,1.56-3.71,2.53-6.07,2.53H-164.2c-2.36,0-4.51-.97-6.07-2.53-1.56-1.56-2.53-3.71-2.53-6.07V-67.31c0-2.36,.97-4.51,2.53-6.07s3.71-2.53,6.07-2.53H-81.07c2.18,0,4.07-1.21,5.05-2.99Z"/><path class="cls-1" d="M0-55.29c-21.95,0-41.83,8.9-56.22,23.29-14.39,14.39-23.29,34.26-23.29,56.22s8.9,41.83,23.29,56.22C-41.83,94.82-21.95,103.72,0,103.72s41.83-8.9,56.22-23.29c14.39-14.39,23.29-34.26,23.29-56.22s-8.9-41.83-23.29-56.22C41.83-46.39,21.95-55.29,0-55.29H0ZM67.98,24.21c0,18.77-7.61,35.77-19.91,48.07C35.77,84.59,18.77,92.2,0,92.2s-35.77-7.61-48.07-19.91c-12.3-12.3-19.91-29.3-19.91-48.07s7.61-35.77,19.91-48.07C-35.77-36.16-18.77-43.77,0-43.77s35.77,7.61,48.07,19.91c12.3,12.3,19.91,29.3,19.91,48.07Z"/><path class="cls-1" d="M-49.72,24.21c0,3.18,2.58,5.76,5.76,5.76s5.76-2.58,5.76-5.76c0-10.55,4.28-20.1,11.19-27.01C-20.1-9.71-10.55-13.99,0-13.99c3.18,0,5.76-2.58,5.76-5.76S3.18-25.51,0-25.51c-13.73,0-26.16,5.57-35.16,14.56-9,9-14.56,21.43-14.56,35.16Z"/></g></g></pattern></defs><rect class="cls-3" width="5000.47" height="5000.47"/></svg>