<?xml version="1.0" encoding="UTF-8"?><svg id="Layer_1" xmlns="http://www.w3.org/2000/svg" viewBox="0 0 3840.29 5903.95"><defs><style>.cls-1{fill:#fff;}.cls-2{fill:#9bc9da;}.cls-3{fill:#284b63;}</style></defs><rect class="cls-1" x=".28" y="5407.37" width="3840" height="496.58"/><polygon class="cls-1" points="0 1879.77 3840.14 1312.94 3840.14 4636.87 0 4708.41 0 1879.77"/><path class="cls-2" d="M3840.28,951.74v428.6s-74.9,135.99-205.14,139.66c-243.11,6.85-213.73,255.62-650.17,431.31-323.56,130.25-715.41,137.58-1064.9,154.09-196.97,9.3-924.56,2.24-1157.72-16.99C246.06,2045.84,.28,2158.12,.28,2158.12v-603.05c5.51-3.59,94.14-59.53,307.14-89.7,509.55-72.19,656.02,121.25,1207.03,84.38,478.63-32.03,428.06-213.65,961.23-264.15,532.12-50.41,650,124.11,1005.25-7.34,255.83-94.66,359.35-326.52,359.35-326.52Z"/><path class="cls-3" d="M.28,0V1555.07c-.19,.12-.28,.18-.28,.18L.28,0Z"/><path class="cls-2" d="M3840.29,5699.04s-106.5,1.21-810.76,0c-698.41-1.2-297.17,110.06-836.48,16.51-195.95-33.99-556.45-296.99-891.52-170.6C923.6,5687.51,.28,5814.61,.28,5814.61v-1410.26s529.57,268.04,1576.54,129.35c364.81-48.33,327.2-125.75,785.12-205.45,523.49-91.11,1478.34,172.43,1478.34,172.43"/><path class="cls-3" d="M.28,4994.45s444.97-178.11,1125.14-148.41c552.57,24.13,642.23,141.05,1095.13,121.07,374.22-16.51,434.75-158.11,858.11-178.48,474.82-22.84,761.48,66.92,761.48,66.92l.14,880.59s-271.45,217.71-1146.45,157.17c-764.2-52.87-803.47-151.67-1524.38-168.18C348.99,5706.35,.28,5856.44,.28,5856.44v-861.99Z"/></svg>